<svg width="148" height="205" viewBox="0 0 148 205" fill="none" xmlns="http://www.w3.org/2000/svg">
<path d="M22.3796 158V161.682H19.8308V176.398H15.5386V161.682H13V158H22.3796Z" fill="black"/>
<path d="M27.3548 161.318L27.1917 163.295C27.7898 161.879 28.6564 161.129 29.7915 161.045V166.352C29.037 166.352 28.4831 166.466 28.1297 166.693C27.7762 166.92 27.5587 167.239 27.4772 167.648C27.3956 168.049 27.3548 168.981 27.3548 170.443V176.398H23.236V161.318H27.3548Z" fill="black"/>
<path d="M34.3997 167.159H30.5357V166.148C30.5357 164.981 30.6547 164.083 30.8926 163.455C31.1372 162.818 31.6232 162.258 32.3505 161.773C33.0777 161.288 34.0225 161.045 35.1847 161.045C36.5781 161.045 37.6282 161.322 38.335 161.875C39.0419 162.42 39.4667 163.095 39.6094 163.898C39.7522 164.693 39.8235 166.337 39.8235 168.83V176.398H35.8168V175.057C35.5654 175.595 35.2391 176 34.8381 176.273C34.4439 176.538 33.9715 176.67 33.421 176.67C32.7005 176.67 32.0378 176.447 31.4329 176C30.8348 175.545 30.5357 174.557 30.5357 173.034V171.795C30.5357 170.667 30.6955 169.898 31.0149 169.489C31.3344 169.08 32.1262 168.602 33.3904 168.057C34.7429 167.466 35.4668 167.068 35.562 166.864C35.6571 166.659 35.7047 166.242 35.7047 165.614C35.7047 164.826 35.6503 164.314 35.5416 164.08C35.4396 163.837 35.2663 163.716 35.0216 163.716C34.7429 163.716 34.5696 163.818 34.5017 164.023C34.4337 164.22 34.3997 164.739 34.3997 165.58V167.159ZM35.7047 169.227C35.0454 169.765 34.6614 170.216 34.5526 170.58C34.4507 170.943 34.3997 171.466 34.3997 172.148C34.3997 172.928 34.4439 173.432 34.5322 173.659C34.6274 173.886 34.8109 174 35.0828 174C35.3411 174 35.5076 173.913 35.5823 173.739C35.6639 173.557 35.7047 173.087 35.7047 172.33V169.227Z" fill="black"/>
<path d="M45.4309 161.318L45.3595 162.705C45.6586 162.152 46.0222 161.739 46.4504 161.466C46.8854 161.186 47.385 161.045 47.9491 161.045C48.656 161.045 49.2337 161.231 49.6823 161.602C50.1309 161.973 50.4197 162.443 50.5489 163.011C50.678 163.572 50.7426 164.511 50.7426 165.83V176.398H46.6237V165.955C46.6237 164.917 46.5932 164.284 46.532 164.057C46.4708 163.83 46.3009 163.716 46.0222 163.716C45.73 163.716 45.5464 163.848 45.4717 164.114C45.3969 164.371 45.3595 165.068 45.3595 166.205V176.398H41.2407V161.318H45.4309Z" fill="black"/>
<path d="M60.581 166.136H56.9311V165.318C56.9311 164.621 56.8937 164.182 56.8189 164C56.751 163.811 56.5742 163.716 56.2888 163.716C56.0577 163.716 55.8844 163.803 55.7688 163.977C55.6533 164.144 55.5955 164.398 55.5955 164.739C55.5955 165.201 55.6227 165.542 55.6771 165.761C55.7382 165.973 55.9116 166.208 56.197 166.466C56.4893 166.723 57.084 167.098 57.9812 167.591C59.1774 168.242 59.9624 168.856 60.3363 169.432C60.7101 170.008 60.897 170.845 60.897 171.943C60.897 173.17 60.7543 174.098 60.4688 174.727C60.1833 175.348 59.7042 175.83 59.0313 176.17C58.3652 176.504 57.5598 176.67 56.615 176.67C55.5683 176.67 54.6711 176.489 53.9235 176.125C53.1826 175.761 52.6729 175.269 52.3942 174.648C52.1155 174.027 51.9762 173.087 51.9762 171.83V171.102H55.6261V172.057C55.6261 172.867 55.6703 173.394 55.7586 173.636C55.8538 173.879 56.0373 174 56.3092 174C56.6014 174 56.8053 173.92 56.9209 173.761C57.0364 173.595 57.0942 173.25 57.0942 172.727C57.0942 172.008 57.0194 171.557 56.8699 171.375C56.7136 171.193 55.915 170.655 54.474 169.761C53.2642 169.004 52.5268 168.318 52.2617 167.705C51.9966 167.083 51.8641 166.348 51.8641 165.5C51.8641 164.295 52.0068 163.409 52.2923 162.841C52.5777 162.265 53.0603 161.822 53.74 161.511C54.4265 161.201 55.2217 161.045 56.1257 161.045C57.0228 161.045 57.7841 161.174 58.4094 161.432C59.0415 161.682 59.5241 162.015 59.8571 162.432C60.1969 162.848 60.4008 163.235 60.4688 163.591C60.5436 163.947 60.581 164.504 60.581 165.261V166.136Z" fill="black"/>
<path d="M71.3573 161.318V172.932C71.3573 174.5 71.3233 175.515 71.2553 175.977C71.1941 176.432 70.9665 176.913 70.5722 177.42C70.178 177.936 69.6275 178.326 68.9206 178.591C68.2205 178.864 67.337 179 66.2699 179C64.9581 179 63.9046 178.75 63.1094 178.25C62.3141 177.758 61.9029 176.784 61.8757 175.33H65.8723C65.8723 175.996 66.0898 176.33 66.5247 176.33C66.8374 176.33 67.0447 176.227 67.1467 176.023C67.2486 175.818 67.2996 175.39 67.2996 174.739V173.602C66.9461 173.958 66.5723 174.227 66.1781 174.409C65.7907 174.591 65.3829 174.682 64.9547 174.682C64.2138 174.682 63.6021 174.515 63.1196 174.182C62.6438 173.848 62.3175 173.413 62.1408 172.875C61.9641 172.33 61.8757 171.557 61.8757 170.557V165.08C61.8757 163.648 62.1068 162.617 62.569 161.989C63.0312 161.36 63.7347 161.045 64.6794 161.045C65.196 161.045 65.665 161.163 66.0864 161.398C66.5146 161.633 66.8952 161.985 67.2282 162.455L67.5239 161.318H71.3573ZM67.2282 165.318C67.2282 164.629 67.1908 164.189 67.1161 164C67.0481 163.811 66.8918 163.716 66.6471 163.716C66.4092 163.716 66.2393 163.826 66.1373 164.045C66.0422 164.258 65.9946 164.682 65.9946 165.318V170.386C65.9946 171.061 66.032 171.5 66.1067 171.705C66.1815 171.902 66.3378 172 66.5757 172C66.8476 172 67.0243 171.879 67.1059 171.636C67.1874 171.394 67.2282 170.845 67.2282 169.989V165.318Z" fill="black"/>
<path d="M76.5058 167.159H72.6419V166.148C72.6419 164.981 72.7608 164.083 72.9987 163.455C73.2434 162.818 73.7293 162.258 74.4566 161.773C75.1839 161.288 76.1286 161.045 77.2909 161.045C78.6842 161.045 79.7343 161.322 80.4412 161.875C81.148 162.42 81.5728 163.095 81.7156 163.898C81.8583 164.693 81.9297 166.337 81.9297 168.83V176.398H77.923V175.057C77.6715 175.595 77.3452 176 76.9442 176.273C76.55 176.538 76.0776 176.67 75.5271 176.67C74.8066 176.67 74.144 176.447 73.539 176C72.9409 175.545 72.6419 174.557 72.6419 173.034V171.795C72.6419 170.667 72.8016 169.898 73.121 169.489C73.4405 169.08 74.2323 168.602 75.4965 168.057C76.8491 167.466 77.5729 167.068 77.6681 166.864C77.7632 166.659 77.8108 166.242 77.8108 165.614C77.8108 164.826 77.7564 164.314 77.6477 164.08C77.5457 163.837 77.3724 163.716 77.1277 163.716C76.8491 163.716 76.6758 163.818 76.6078 164.023C76.5398 164.22 76.5058 164.739 76.5058 165.58V167.159ZM77.8108 169.227C77.1515 169.765 76.7675 170.216 76.6588 170.58C76.5568 170.943 76.5058 171.466 76.5058 172.148C76.5058 172.928 76.55 173.432 76.6384 173.659C76.7335 173.886 76.917 174 77.1889 174C77.4472 174 77.6137 173.913 77.6885 173.739C77.77 173.557 77.8108 173.087 77.8108 172.33V169.227Z" fill="black"/>
<path d="M91.7578 166.136H88.108V165.318C88.108 164.621 88.0706 164.182 87.9958 164C87.9279 163.811 87.7511 163.716 87.4657 163.716C87.2346 163.716 87.0613 163.803 86.9457 163.977C86.8302 164.144 86.7724 164.398 86.7724 164.739C86.7724 165.201 86.7996 165.542 86.854 165.761C86.9151 165.973 87.0884 166.208 87.3739 166.466C87.6662 166.723 88.2609 167.098 89.1581 167.591C90.3543 168.242 91.1393 168.856 91.5132 169.432C91.887 170.008 92.0739 170.845 92.0739 171.943C92.0739 173.17 91.9312 174.098 91.6457 174.727C91.3602 175.348 90.8811 175.83 90.2082 176.17C89.5421 176.504 88.7367 176.67 87.7919 176.67C86.7452 176.67 85.848 176.489 85.1004 176.125C84.3595 175.761 83.8498 175.269 83.5711 174.648C83.2924 174.027 83.1531 173.087 83.1531 171.83V171.102H86.803V172.057C86.803 172.867 86.8472 173.394 86.9355 173.636C87.0307 173.879 87.2142 174 87.4861 174C87.7783 174 87.9822 173.92 88.0978 173.761C88.2133 173.595 88.2711 173.25 88.2711 172.727C88.2711 172.008 88.1963 171.557 88.0468 171.375C87.8905 171.193 87.0918 170.655 85.6509 169.761C84.4411 169.004 83.7036 168.318 83.4386 167.705C83.1735 167.083 83.041 166.348 83.041 165.5C83.041 164.295 83.1837 163.409 83.4692 162.841C83.7546 162.265 84.2372 161.822 84.9169 161.511C85.6033 161.201 86.3986 161.045 87.3025 161.045C88.1997 161.045 88.961 161.174 89.5863 161.432C90.2184 161.682 90.7009 162.015 91.034 162.432C91.3738 162.848 91.5777 163.235 91.6457 163.591C91.7205 163.947 91.7578 164.504 91.7578 165.261V166.136Z" fill="black"/>
<path d="M97.4162 158V160.398H93.175V158H97.4162ZM97.4162 161.318V176.398H93.175V161.318H97.4162Z" fill="black"/>
<path d="M103.095 161.318L103.024 162.705C103.323 162.152 103.686 161.739 104.114 161.466C104.549 161.186 105.049 161.045 105.613 161.045C106.32 161.045 106.898 161.231 107.346 161.602C107.795 161.973 108.084 162.443 108.213 163.011C108.342 163.572 108.407 164.511 108.407 165.83V176.398H104.288V165.955C104.288 164.917 104.257 164.284 104.196 164.057C104.135 163.83 103.965 163.716 103.686 163.716C103.394 163.716 103.21 163.848 103.136 164.114C103.061 164.371 103.024 165.068 103.024 166.205V176.398H98.9047V161.318H103.095Z" fill="black"/>
<path d="M119.203 158V176.398H115.084V175.307C114.69 175.761 114.276 176.102 113.841 176.33C113.406 176.557 112.95 176.67 112.474 176.67C111.836 176.67 111.282 176.485 110.813 176.114C110.344 175.735 110.041 175.299 109.905 174.807C109.776 174.314 109.712 173.511 109.712 172.398V165.341C109.712 164.182 109.776 163.36 109.905 162.875C110.041 162.39 110.347 161.966 110.823 161.602C111.299 161.231 111.866 161.045 112.525 161.045C113.035 161.045 113.501 161.148 113.922 161.352C114.35 161.557 114.738 161.864 115.084 162.273V158H119.203ZM115.084 165.114C115.084 164.561 115.04 164.189 114.952 164C114.87 163.811 114.704 163.716 114.452 163.716C114.208 163.716 114.041 163.803 113.953 163.977C113.871 164.144 113.83 164.523 113.83 165.114V172.5C113.83 173.114 113.871 173.519 113.953 173.716C114.034 173.905 114.191 174 114.422 174C114.687 174 114.864 173.894 114.952 173.682C115.04 173.462 115.084 172.932 115.084 172.091V165.114Z" fill="black"/>
<path d="M130 166.614V170.307C130 171.663 129.939 172.659 129.816 173.295C129.694 173.924 129.432 174.515 129.031 175.068C128.63 175.614 128.114 176.019 127.482 176.284C126.856 176.542 126.136 176.67 125.32 176.67C124.41 176.67 123.638 176.561 123.006 176.341C122.374 176.114 121.881 175.777 121.528 175.33C121.181 174.875 120.933 174.33 120.784 173.693C120.634 173.049 120.559 172.087 120.559 170.807V166.943C120.559 165.542 120.695 164.447 120.967 163.659C121.239 162.871 121.728 162.239 122.435 161.761C123.142 161.284 124.046 161.045 125.147 161.045C126.071 161.045 126.863 161.201 127.523 161.511C128.189 161.814 128.702 162.212 129.062 162.705C129.422 163.197 129.667 163.705 129.796 164.227C129.932 164.75 130 165.545 130 166.614ZM125.881 165.477C125.881 164.705 125.844 164.22 125.769 164.023C125.694 163.818 125.535 163.716 125.29 163.716C125.045 163.716 124.882 163.818 124.8 164.023C124.719 164.22 124.678 164.705 124.678 165.477V172.284C124.678 172.996 124.719 173.462 124.8 173.682C124.882 173.894 125.042 174 125.28 174C125.524 174 125.684 173.902 125.759 173.705C125.84 173.508 125.881 173.083 125.881 172.432V165.477Z" fill="black"/>
<path d="M46.3281 197.739L48.0508 197.915C47.8281 199.028 47.3975 199.852 46.7588 200.385C46.1201 200.918 45.3496 201.185 44.4473 201.185C43.2227 201.185 42.2793 200.739 41.6172 199.849C40.9609 198.952 40.6328 197.856 40.6328 196.562C40.6328 195.226 40.9932 194.121 41.7139 193.248C42.4346 192.375 43.3955 191.938 44.5967 191.938C46.5303 191.938 47.6816 192.958 48.0508 194.997L46.3281 195.234C46.1758 194.133 45.6338 193.582 44.7021 193.582C44.0225 193.582 43.5273 193.881 43.2168 194.479C42.9121 195.07 42.7598 195.788 42.7598 196.632C42.7598 197.528 42.918 198.22 43.2344 198.706C43.5566 199.192 44.0049 199.436 44.5791 199.436C45.458 199.436 46.041 198.87 46.3281 197.739Z" fill="black"/>
<path d="M53.0605 201.185C51.748 201.185 50.7461 200.713 50.0547 199.77C49.3633 198.826 49.0176 197.745 49.0176 196.526C49.0176 195.214 49.3984 194.121 50.1602 193.248C50.9277 192.375 51.9385 191.938 53.1924 191.938C54.3818 191.938 55.3574 192.363 56.1191 193.213C56.8867 194.062 57.2705 195.167 57.2705 196.526C57.2705 197.927 56.8721 199.055 56.0752 199.91C55.2842 200.76 54.2793 201.185 53.0605 201.185ZM53.1309 199.532C54.4785 199.532 55.1523 198.527 55.1523 196.518C55.1523 195.609 54.9912 194.895 54.6689 194.373C54.3467 193.846 53.8516 193.582 53.1836 193.582C52.4922 193.582 51.9795 193.854 51.6455 194.399C51.3115 194.938 51.1445 195.656 51.1445 196.553C51.1445 197.52 51.3203 198.258 51.6719 198.768C52.0293 199.277 52.5156 199.532 53.1309 199.532Z" fill="black"/>
<path d="M66.4639 201H64.46V195.454C64.46 194.868 64.3252 194.429 64.0557 194.136C63.7861 193.837 63.4609 193.688 63.0801 193.688C62.5586 193.688 62.1016 193.916 61.709 194.373C61.3164 194.83 61.1201 195.519 61.1201 196.438V201H59.1162V192.123H60.9443V194.18C61.583 192.686 62.4795 191.938 63.6338 191.938C64.4131 191.938 65.0781 192.185 65.6289 192.677C66.1855 193.169 66.4639 194.033 66.4639 195.27V201Z" fill="black"/>
<path d="M76.2197 201H74.2158V195.454C74.2158 194.868 74.0811 194.429 73.8115 194.136C73.542 193.837 73.2168 193.688 72.8359 193.688C72.3145 193.688 71.8574 193.916 71.4648 194.373C71.0723 194.83 70.876 195.519 70.876 196.438V201H68.8721V192.123H70.7002V194.18C71.3389 192.686 72.2354 191.938 73.3896 191.938C74.1689 191.938 74.834 192.185 75.3848 192.677C75.9414 193.169 76.2197 194.033 76.2197 195.27V201Z" fill="black"/>
<path d="M84.2705 198.17L86.0811 198.416C85.8467 199.219 85.3896 199.881 84.71 200.402C84.0303 200.924 83.1777 201.185 82.1523 201.185C80.9219 201.185 79.9316 200.771 79.1816 199.945C78.4316 199.119 78.0566 198 78.0566 196.588C78.0566 195.246 78.4346 194.136 79.1904 193.257C79.9463 192.378 80.9717 191.938 82.2666 191.938C83.5322 191.938 84.5107 192.372 85.2021 193.239C85.8936 194.106 86.2393 195.22 86.2393 196.579L86.2305 196.808H80.1396C80.1396 197.411 80.1953 197.895 80.3066 198.258C80.4238 198.621 80.6523 198.938 80.9922 199.207C81.332 199.477 81.7568 199.611 82.2666 199.611C83.2568 199.611 83.9248 199.131 84.2705 198.17ZM84.1475 195.516C84.1416 194.877 83.9482 194.355 83.5674 193.951C83.1924 193.547 82.7266 193.345 82.1699 193.345C81.6191 193.345 81.1592 193.535 80.79 193.916C80.4209 194.291 80.2041 194.824 80.1396 195.516H84.1475Z" fill="black"/>
<path d="M93.1914 197.739L94.9141 197.915C94.6914 199.028 94.2607 199.852 93.6221 200.385C92.9834 200.918 92.2129 201.185 91.3105 201.185C90.0859 201.185 89.1426 200.739 88.4805 199.849C87.8242 198.952 87.4961 197.856 87.4961 196.562C87.4961 195.226 87.8564 194.121 88.5771 193.248C89.2979 192.375 90.2588 191.938 91.46 191.938C93.3936 191.938 94.5449 192.958 94.9141 194.997L93.1914 195.234C93.0391 194.133 92.4971 193.582 91.5654 193.582C90.8857 193.582 90.3906 193.881 90.0801 194.479C89.7754 195.07 89.623 195.788 89.623 196.632C89.623 197.528 89.7812 198.22 90.0977 198.706C90.4199 199.192 90.8682 199.436 91.4424 199.436C92.3213 199.436 92.9043 198.87 93.1914 197.739Z" fill="black"/>
<path d="M100.565 199.436V201C99.9678 201.129 99.5049 201.193 99.1768 201.193C98.6377 201.193 98.1748 201.088 97.7881 200.877C97.4014 200.66 97.1172 200.367 96.9355 199.998C96.7598 199.623 96.6719 199.049 96.6719 198.275V193.679H95.5645V192.123H96.7861L96.9707 189.812L98.6143 189.662V192.123H100.398V193.679H98.6143V198.012C98.6143 198.568 98.7139 198.949 98.9131 199.154C99.1182 199.354 99.502 199.453 100.064 199.453C100.223 199.453 100.39 199.447 100.565 199.436Z" fill="black"/>
<path d="M5.23047 199.089L6.15723 199.28C5.98796 199.826 5.65788 200.278 5.16699 200.638C4.67611 200.994 4.09847 201.171 3.43408 201.171C2.55811 201.171 1.84928 200.865 1.30762 200.251C0.765951 199.633 0.495117 198.825 0.495117 197.826C0.495117 196.806 0.77653 195.983 1.33936 195.357C1.90218 194.726 2.60889 194.411 3.45947 194.411C4.29736 194.411 4.97021 194.701 5.47803 195.281C5.99007 195.861 6.25244 196.728 6.26514 197.883H1.60596C1.60596 198.852 1.80908 199.506 2.21533 199.845C2.62158 200.183 3.05111 200.353 3.50391 200.353C4.32064 200.353 4.89616 199.931 5.23047 199.089ZM5.17334 197.141C5.16488 196.781 5.10563 196.461 4.99561 196.182C4.88558 195.903 4.69938 195.666 4.43701 195.471C4.17464 195.272 3.85938 195.173 3.49121 195.173C2.99609 195.173 2.57503 195.351 2.22803 195.706C1.88525 196.062 1.69271 196.54 1.65039 197.141H5.17334Z" fill="black"/>
<path d="M12.8159 201H11.8828V196.88C11.8828 196.288 11.7537 195.871 11.4956 195.63C11.2375 195.389 10.9243 195.268 10.5562 195.268C10.0483 195.268 9.62093 195.471 9.27393 195.877C8.93115 196.284 8.75977 196.819 8.75977 197.483V201H7.76318V194.589H8.68994V195.77C9.21045 194.864 9.88542 194.411 10.7148 194.411C11.193 194.411 11.5993 194.536 11.9336 194.786C12.2721 195.031 12.5028 195.308 12.6255 195.617C12.7524 195.926 12.8159 196.485 12.8159 197.293V201Z" fill="black"/>
<path d="M19.043 199.089L19.9697 199.28C19.8005 199.826 19.4704 200.278 18.9795 200.638C18.4886 200.994 17.911 201.171 17.2466 201.171C16.3706 201.171 15.6618 200.865 15.1201 200.251C14.5785 199.633 14.3076 198.825 14.3076 197.826C14.3076 196.806 14.589 195.983 15.1519 195.357C15.7147 194.726 16.4214 194.411 17.272 194.411C18.1099 194.411 18.7827 194.701 19.2905 195.281C19.8026 195.861 20.0649 196.728 20.0776 197.883H15.4185C15.4185 198.852 15.6216 199.506 16.0278 199.845C16.4341 200.183 16.8636 200.353 17.3164 200.353C18.1331 200.353 18.7087 199.931 19.043 199.089ZM18.9858 197.141C18.9774 196.781 18.9181 196.461 18.8081 196.182C18.6981 195.903 18.5119 195.666 18.2495 195.471C17.9871 195.272 17.6719 195.173 17.3037 195.173C16.8086 195.173 16.3875 195.351 16.0405 195.706C15.6978 196.062 15.5052 196.54 15.4629 197.141H18.9858Z" fill="black"/>
<path d="M22.5723 201H21.5757V194.589H22.4517V196.087C22.7606 195.38 23.0695 194.923 23.3784 194.716C23.6916 194.504 24.0111 194.398 24.3369 194.398C24.4385 194.398 24.5697 194.407 24.7305 194.424V195.376H24.5273C23.9772 195.376 23.5202 195.581 23.1562 195.992C22.7923 196.402 22.5977 196.942 22.5723 197.61V201Z" fill="black"/>
<path d="M31.1035 193.586V194.379C30.6465 194.379 30.3397 194.432 30.1831 194.538C30.0308 194.644 29.9292 194.834 29.8784 195.109C30.2889 195.583 30.4941 196.1 30.4941 196.658C30.4941 197.242 30.2699 197.744 29.8213 198.163C29.377 198.582 28.7782 198.791 28.0249 198.791C27.8556 198.791 27.7096 198.778 27.5869 198.753C27.3542 198.706 27.2082 198.683 27.1489 198.683C27.0347 198.683 26.8971 198.74 26.7363 198.854C26.5755 198.965 26.4951 199.108 26.4951 199.286C26.4951 199.54 26.6115 199.705 26.8442 199.781C27.077 199.857 27.625 199.906 28.4883 199.927C29.2204 199.948 29.7599 199.999 30.1069 200.08C30.4582 200.156 30.7544 200.329 30.9956 200.6C31.2368 200.867 31.3574 201.195 31.3574 201.584C31.3574 202.807 30.2826 203.418 28.1328 203.418C27.113 203.418 26.3682 203.264 25.8984 202.955C25.4329 202.65 25.2002 202.242 25.2002 201.73C25.2002 201.108 25.526 200.681 26.1777 200.448C25.7588 200.173 25.5493 199.828 25.5493 199.413C25.5493 198.918 25.8455 198.539 26.438 198.277C25.8836 197.828 25.6064 197.263 25.6064 196.582C25.6064 195.947 25.8434 195.427 26.3174 195.021C26.7913 194.614 27.369 194.411 28.0503 194.411C28.5327 194.411 28.9707 194.502 29.3643 194.684C29.4277 194.265 29.5737 193.975 29.8022 193.814C30.035 193.654 30.3862 193.573 30.856 193.573C30.9025 193.573 30.985 193.577 31.1035 193.586ZM28.0566 198.029C28.4798 198.029 28.8247 197.9 29.0913 197.642C29.3579 197.38 29.4912 197.041 29.4912 196.626C29.4912 196.203 29.3516 195.858 29.0723 195.592C28.7972 195.321 28.4629 195.186 28.0693 195.186C27.6927 195.186 27.3584 195.312 27.0664 195.566C26.7744 195.816 26.6284 196.174 26.6284 196.639C26.6284 197.054 26.7596 197.39 27.022 197.648C27.2843 197.902 27.6292 198.029 28.0566 198.029ZM26.8633 200.74C26.3978 200.943 26.165 201.237 26.165 201.622C26.165 201.948 26.3555 202.2 26.7363 202.377C27.1214 202.559 27.6102 202.65 28.2026 202.65C28.7528 202.65 29.2563 202.572 29.7134 202.416C30.1704 202.263 30.3989 202.003 30.3989 201.635C30.3989 201.436 30.3312 201.273 30.1958 201.146C30.0604 201.019 29.8742 200.939 29.6372 200.905C29.4045 200.871 28.9961 200.846 28.4121 200.829C27.7139 200.812 27.1976 200.782 26.8633 200.74Z" fill="black"/>
<path d="M36.6514 194.589L34.0806 201.749C33.7082 202.782 33.1136 203.298 32.2969 203.298C32.0387 203.298 31.7531 203.253 31.4399 203.165V202.384C31.6981 202.443 31.9202 202.473 32.1064 202.473C32.4238 202.473 32.6883 202.382 32.8999 202.2C33.1157 202.018 33.3294 201.578 33.541 200.879L31.3257 194.589H32.3413L34.0552 199.407L35.8135 194.589H36.6514Z" fill="black"/>
<path d="M106.133 199.337L107.085 199.14C107.297 199.948 107.966 200.353 109.091 200.353C109.506 200.353 109.857 200.259 110.145 200.073C110.433 199.887 110.577 199.625 110.577 199.286C110.577 198.783 110.211 198.463 109.479 198.328L108.126 198.074C107.597 197.972 107.176 197.773 106.863 197.477C106.55 197.181 106.394 196.789 106.394 196.303C106.394 195.765 106.607 195.317 107.035 194.957C107.462 194.593 108.038 194.411 108.761 194.411C110.153 194.411 111.013 194.955 111.338 196.042L110.424 196.239C110.162 195.571 109.622 195.236 108.806 195.236C108.399 195.236 108.065 195.321 107.803 195.49C107.545 195.655 107.416 195.888 107.416 196.188C107.416 196.662 107.748 196.961 108.412 197.083L109.663 197.306C110.97 197.543 111.624 198.175 111.624 199.204C111.624 199.792 111.381 200.268 110.894 200.632C110.407 200.992 109.76 201.171 108.952 201.171C107.432 201.171 106.493 200.56 106.133 199.337Z" fill="black"/>
<path d="M117.426 194.589L114.855 201.749C114.483 202.782 113.888 203.298 113.071 203.298C112.813 203.298 112.528 203.253 112.214 203.165V202.384C112.472 202.443 112.695 202.473 112.881 202.473C113.198 202.473 113.463 202.382 113.674 202.2C113.89 202.018 114.104 201.578 114.315 200.879L112.1 194.589H113.116L114.83 199.407L116.588 194.589H117.426Z" fill="black"/>
<path d="M123.475 201H122.542V196.88C122.542 196.288 122.413 195.871 122.155 195.63C121.897 195.389 121.583 195.268 121.215 195.268C120.708 195.268 120.28 195.471 119.933 195.877C119.59 196.284 119.419 196.819 119.419 197.483V201H118.422V194.589H119.349V195.77C119.87 194.864 120.545 194.411 121.374 194.411C121.852 194.411 122.258 194.536 122.593 194.786C122.931 195.031 123.162 195.308 123.285 195.617C123.412 195.926 123.475 196.485 123.475 197.293V201Z" fill="black"/>
<path d="M129.702 199.089L130.629 199.28C130.46 199.826 130.13 200.278 129.639 200.638C129.148 200.994 128.57 201.171 127.906 201.171C127.03 201.171 126.321 200.865 125.779 200.251C125.238 199.633 124.967 198.825 124.967 197.826C124.967 196.806 125.248 195.983 125.811 195.357C126.374 194.726 127.081 194.411 127.931 194.411C128.769 194.411 129.442 194.701 129.95 195.281C130.462 195.861 130.724 196.728 130.737 197.883H126.078C126.078 198.852 126.281 199.506 126.687 199.845C127.093 200.183 127.523 200.353 127.976 200.353C128.792 200.353 129.368 199.931 129.702 199.089ZM129.645 197.141C129.637 196.781 129.577 196.461 129.467 196.182C129.357 195.903 129.171 195.666 128.909 195.471C128.646 195.272 128.331 195.173 127.963 195.173C127.468 195.173 127.047 195.351 126.7 195.706C126.357 196.062 126.164 196.54 126.122 197.141H129.645Z" fill="black"/>
<path d="M133.231 201H132.235V194.589H133.111V196.087C133.42 195.38 133.729 194.923 134.038 194.716C134.351 194.504 134.67 194.398 134.996 194.398C135.098 194.398 135.229 194.407 135.39 194.424V195.376H135.187C134.636 195.376 134.179 195.581 133.815 195.992C133.451 196.402 133.257 196.942 133.231 197.61V201Z" fill="black"/>
<path d="M141.763 193.586V194.379C141.306 194.379 140.999 194.432 140.842 194.538C140.69 194.644 140.588 194.834 140.538 195.109C140.948 195.583 141.153 196.1 141.153 196.658C141.153 197.242 140.929 197.744 140.48 198.163C140.036 198.582 139.437 198.791 138.684 198.791C138.515 198.791 138.369 198.778 138.246 198.753C138.013 198.706 137.867 198.683 137.808 198.683C137.694 198.683 137.556 198.74 137.396 198.854C137.235 198.965 137.154 199.108 137.154 199.286C137.154 199.54 137.271 199.705 137.503 199.781C137.736 199.857 138.284 199.906 139.147 199.927C139.88 199.948 140.419 199.999 140.766 200.08C141.117 200.156 141.414 200.329 141.655 200.6C141.896 200.867 142.017 201.195 142.017 201.584C142.017 202.807 140.942 203.418 138.792 203.418C137.772 203.418 137.027 203.264 136.558 202.955C136.092 202.65 135.859 202.242 135.859 201.73C135.859 201.108 136.185 200.681 136.837 200.448C136.418 200.173 136.208 199.828 136.208 199.413C136.208 198.918 136.505 198.539 137.097 198.277C136.543 197.828 136.266 197.263 136.266 196.582C136.266 195.947 136.503 195.427 136.977 195.021C137.451 194.614 138.028 194.411 138.709 194.411C139.192 194.411 139.63 194.502 140.023 194.684C140.087 194.265 140.233 193.975 140.461 193.814C140.694 193.654 141.045 193.573 141.515 193.573C141.562 193.573 141.644 193.577 141.763 193.586ZM138.716 198.029C139.139 198.029 139.484 197.9 139.75 197.642C140.017 197.38 140.15 197.041 140.15 196.626C140.15 196.203 140.011 195.858 139.731 195.592C139.456 195.321 139.122 195.186 138.729 195.186C138.352 195.186 138.018 195.312 137.726 195.566C137.434 195.816 137.288 196.174 137.288 196.639C137.288 197.054 137.419 197.39 137.681 197.648C137.944 197.902 138.288 198.029 138.716 198.029ZM137.522 200.74C137.057 200.943 136.824 201.237 136.824 201.622C136.824 201.948 137.015 202.2 137.396 202.377C137.781 202.559 138.269 202.65 138.862 202.65C139.412 202.65 139.916 202.572 140.373 202.416C140.83 202.263 141.058 202.003 141.058 201.635C141.058 201.436 140.99 201.273 140.855 201.146C140.72 201.019 140.533 200.939 140.296 200.905C140.064 200.871 139.655 200.846 139.071 200.829C138.373 200.812 137.857 200.782 137.522 200.74Z" fill="black"/>
<path d="M147.311 194.589L144.74 201.749C144.367 202.782 143.773 203.298 142.956 203.298C142.698 203.298 142.412 203.253 142.099 203.165V202.384C142.357 202.443 142.579 202.473 142.766 202.473C143.083 202.473 143.347 202.382 143.559 202.2C143.775 202.018 143.989 201.578 144.2 200.879L141.985 194.589H143L144.714 199.407L146.473 194.589H147.311Z" fill="black"/>
<path d="M54.1039 100.901C48.7255 80.7578 48.6408 55.4708 59.5419 24.7181L84.5 0V22L68 38C50.8 78.8 60.8333 111 68 122C52.8 79.6 74.3333 46.6667 87 35.5V68.5C67.9895 98.7615 78.1736 135.546 86.2551 151.57C74.3273 141.514 60.4832 124.793 54.1039 100.901Z" fill="#004F93"/>
<path d="M32.5 51.5L57.527 26.7136C47.395 56.5934 47.5872 81.3402 52.8962 101.224C59.2059 124.855 72.7264 141.556 84.6072 151.807C42.477 129.899 39.2367 79.0707 43 56L26.5 71.5L32.5 51.5Z" fill="#004F93"/>
<path d="M91 78.5V89.0467C96.4742 93.2968 101.984 99.9676 104.391 108.874C107.25 119.457 105.699 133.086 94.7009 149.406C126.372 118.198 105.672 89.2597 91 78.5Z" fill="#004F93"/>
<path d="M103.184 109.201C105.889 119.213 104.546 132.241 94.1265 148.015C99.2267 136.002 104.008 113.815 91 99V90.6451C96.0342 94.7709 100.972 101.013 103.184 109.201Z" fill="#004F93"/>
<circle cx="99" cy="69" r="10" fill="#46A941"/>
</svg>
