<?xml version="1.0" encoding="UTF-8"?>
<!-- Created with Inkscape (http://www.inkscape.org/) -->
<svg width="2297" height="431.8" version="1.1" viewBox="0 0 2297 431.8" xmlns="http://www.w3.org/2000/svg">
 <defs>
  <clipPath id="clipPath778-3">
   <path d="m368.94 765.5h211.41v-63.473h-211.41z" clip-rule="evenodd"/>
  </clipPath>
  <clipPath id="clipPath784-7">
   <path d="m0 792h594v-792h-594z"/>
  </clipPath>
  <clipPath id="clipPath790-3">
   <path d="m0 792.03h594v-792h-594z"/>
  </clipPath>
 </defs>
 <g transform="translate(-189.29 -713.13)">
  <g transform="matrix(13.333 0 0 -13.333 -5063.6 10862)">
   <g clip-path="url(#clipPath778-3)">
    <g clip-path="url(#clipPath784-7)">
     <g clip-path="url(#clipPath790-3)">
      <path d="m451.72 755.54c37.635 6.634 68.481 3.554 70.319-6.876 0.354-2.007-0.096-4.139-1.869-6.322 3.711 3.089 5.214 6.132 4.723 8.912-1.783 10.116-32.583 12.942-70.217 6.308-8.598-1.516-16.75-3.395-24.191-5.513l-4.169-1.235c-14.864-4.576-26.441-10.079-32.345-15.396 6.88 5.036 18.281 10.069 32.345 14.216l4.169 1.181c6.624 1.804 13.76 3.407 21.235 4.725" fill="#adb0b2"/>
      <path d="m481.57 740.78c-0.113-0.113-1.502-0.075-1.991-0.075v5.446h0.451 0.564c3.08 0 4.169-0.713 4.169-2.591 0-1.653-1.127-2.705-3.193-2.78zm3.494-1.465h-0.038c0.038 0.038 0.075 0.038 0.113 0.038 2.291 0.864 3.418 2.404 3.418 4.545 0 1.652-0.676 3.004-1.916 3.868-1.202 0.827-2.855 1.202-5.334 1.202h-5.597v-19.794h3.869v8.676c0.113 0 1.202 0.038 1.24 0 2.103 0 2.629-0.525 3.493-3.305l1.653-5.371h4.132l-2.066 6.16c-0.902 2.667-1.352 3.23-2.967 3.981" fill="#0067a6"/>
      <path d="m542.17 740.37c-0.076-0.075-1.24-0.038-1.353-0.038v5.785c0.113 0 1.165 0.037 1.24 0 3.08 0 4.094-0.714 4.094-2.705 0-2.103-1.164-3.042-3.981-3.042zm-16.392-2.967 2.63 7.249 2.516-7.249zm-13.41 3.38c-0.112-0.113-1.502-0.075-1.99-0.075v5.446h0.45 0.564c3.08 0 4.169-0.713 4.169-2.591 0-1.653-1.127-2.705-3.193-2.78zm35.774 6.986c-1.202 0.864-2.855 1.202-5.634 1.202h-5.56v-17.112l-6.625 17.112h-3.681l-6.696-16.964-1.117 3.33c-0.901 2.667-1.352 3.23-2.967 3.981h-0.038c0.038 0.038 0.075 0.038 0.113 0.038 2.291 0.864 3.418 2.404 3.418 4.545 0 1.652-0.676 3.004-1.916 3.868-1.202 0.827-2.854 1.202-5.333 1.202h-5.597v-19.794h3.869v8.676c0.112 0 1.202 0.038 1.239 0 2.104 0 2.63-0.525 3.494-3.305l1.652-5.371h6.123s1.84 5.146 1.84 5.183c0-0.037 7.175 0 7.175 0l1.728-5.183h7.188v8.301h1.09c2.629 0 4.244 0.3 5.559 1.089 1.69 0.977 2.517 2.592 2.517 4.845 0 1.916-0.601 3.456-1.841 4.357" fill="#0067a6"/>
      <path d="m562.34 748.97v-7.887h-8.113v7.887h-3.869v-19.794h3.869v8.977h8.113v-8.977h3.907v19.794h-3.907" fill="#0067a6"/>
      <path d="m498.59 739.32v-3.238h2.967v-3.26c-1.278-0.638-2.517-0.976-3.794-0.976-2.93 0-4.883 2.892-4.883 7.249 0 4.845 1.99 7.437 5.709 7.437 1.766 0 3.306-0.263 5.146-0.902l0.902 3.043c-2.179 0.601-3.794 0.826-5.898 0.826-6.385 0-9.916-3.718-9.916-10.404 0-6.348 3.268-10.329 8.451-10.329 2.517 0 5.334 0.939 7.926 2.704 0.038 0.038 0.075 0.075 0.15 0.113v7.737h-6.76" fill="#0067a6"/>
      <path d="m426.24 729.18h4.1695v25.052h-4.1695z" fill="#0067a6"/>
      <path d="m444.16 748.97v-14.346l-7.888 14.347h-4.32v-19.794h3.381v14.611l8.076-14.611h4.094v16.902h5.404v-16.902h3.869v16.902h5.747v2.891h-18.363" fill="#0067a6"/>
      <path d="m475.01 732.18h-7.888v5.897h6.874v2.892h-6.874v5.146h7.437v2.855h-11.306v-19.795h11.757v3.005" fill="#0067a6"/>
     </g>
    </g>
   </g>
  </g>
 </g>
</svg>
